<?xml version="1.0" encoding="UTF-8" standalone="yes"?>
<svg xmlns="http://www.w3.org/2000/svg" xmlns:xlink="http://www.w3.org/1999/xlink" width="2072.589pt" height="253.534pt" version="1.1" viewBox="-24.109 673.326 2072.589 253.534">
  <!--
	Exported with Concepts: Smarter Sketching
	Version: 2023.11.7 on Android 13
	https://concepts.app/
	-->
  <title>Untitled</title>
  <desc>Drawing exported from Concepts: Smarter Sketching</desc>
  <defs></defs>
  <g id="Pen" opacity="1.000">
    <path id="STROKE_821d5f12-a5a1-4098-ab9f-18928f48597b" opacity="1.000" fill="none" stroke="#000000" stroke-width="3.011" stroke-opacity="1.000" stroke-linecap="round" stroke-linejoin="round" d="M 128.675 897.880 Q 127.533 897.681 127.841 897.695 Q 127.749 897.633 127.008 897.510 Q 127.349 896.728 128.590 893.445 Q 129.831 890.163 130.616 887.361 Q 131.401 884.558 131.768 882.652 Q 132.134 880.746 132.599 878.997 Q 133.063 877.248 133.891 872.122 Q 134.719 866.996 136.011 862.057 Q 137.303 857.118 139.539 851.146 Q 141.775 845.173 142.565 841.897 Q 143.355 838.620 144.332 836.008 Q 145.309 833.396 146.086 831.201 Q 146.864 829.007 148.047 826.500 Q 149.230 823.993 151.143 820.625 Q 153.056 817.258 155.467 814.561 Q 157.878 811.864 159.182 810.701 Q 160.486 809.538 161.632 808.690 Q 162.777 807.842 163.833 807.295 Q 164.889 806.747 165.075 806.688 Q 165.261 806.629 165.234 806.706 Q 165.208 806.782 166.470 806.189 Q 167.732 805.596 169.505 805.073 Q 171.277 804.550 173.538 805.998 Q 175.799 807.445 177.041 808.917 Q 178.283 810.388 180.165 812.610 Q 182.047 814.831 183.595 818.987 Q 185.144 823.143 185.548 828.262 Q 185.952 833.380 185.908 836.606 Q 185.864 839.831 185.407 842.663 Q 184.950 845.494 182.676 849.039 Q 180.403 852.583 176.399 855.137 Q 172.394 857.690 168.712 858.662 Q 165.029 859.634 161.169 859.528 Q 157.309 859.423 154.056 858.391 Q 150.803 857.360 147.670 855.202 Q 144.537 853.045 143.193 851.995 Q 141.849 850.944 141.174 850.587 Q 140.499 850.230 140.245 849.965 Q 139.991 849.700 139.853 849.401 "></path>
    <path id="STROKE_77a5289b-f95f-42c3-b2af-1c397f3bdc5a" opacity="1.000" fill="none" stroke="#000000" stroke-width="3.011" stroke-opacity="1.000" stroke-linecap="round" stroke-linejoin="round" d="M 216.680 805.740 Q 215.824 806.742 216.062 806.635 Q 215.607 807.243 215.182 810.198 Q 214.757 813.152 214.636 814.813 Q 214.515 816.473 214.247 820.040 Q 213.978 823.606 213.317 834.497 Q 212.655 845.387 212.321 851.162 Q 211.987 856.938 212.171 860.329 Q 212.356 863.720 212.357 865.705 Q 212.357 865.669 212.357 863.976 "></path>
    <path id="STROKE_3084b119-87c1-445c-9a9e-9a76d58f2041" opacity="1.000" fill="none" stroke="#000000" stroke-width="3.011" stroke-opacity="1.000" stroke-linecap="round" stroke-linejoin="round" d="M 212.665 834.951 Q 212.573 834.951 212.295 834.951 Q 212.595 835.325 216.074 834.315 Q 219.553 833.304 225.558 833.148 Q 231.563 832.991 235.357 833.312 Q 239.150 833.632 241.417 834.558 Q 243.683 835.484 244.965 836.309 "></path>
    <path id="STROKE_6fdc419b-c5f1-4d15-908f-68a4e5b71845" opacity="1.000" fill="none" stroke="#000000" stroke-width="3.011" stroke-opacity="1.000" stroke-linecap="round" stroke-linejoin="round" d="M 302.029 796.229 Q 301.793 796.292 301.981 796.146 Q 302.168 795.999 301.258 796.220 Q 300.347 796.440 300.088 796.974 Q 299.828 797.508 299.618 797.802 Q 299.408 798.096 299.471 798.028 Q 299.533 797.959 299.406 798.267 Q 299.280 798.575 298.822 799.463 Q 298.364 800.350 298.037 801.233 Q 297.709 802.116 297.761 802.286 Q 297.814 802.456 296.389 806.398 Q 294.964 810.340 293.930 815.863 Q 292.895 821.387 292.692 824.809 Q 292.489 828.232 292.611 833.477 Q 292.732 838.721 292.752 842.327 Q 292.772 845.933 293.907 850.121 Q 295.041 854.310 296.678 857.214 Q 298.315 860.117 298.944 861.633 Q 299.573 863.150 299.845 863.811 Q 300.116 864.472 300.568 865.639 Q 301.019 866.807 301.375 867.797 Q 301.730 868.787 301.820 868.899 Q 301.910 869.012 302.190 869.791 Q 302.471 870.569 303.014 871.172 Q 303.557 871.776 303.874 871.938 Q 304.191 872.100 304.548 871.764 Q 304.905 871.428 305.734 870.769 "></path>
    <path id="STROKE_071a29d5-3476-4e96-9260-a1ee760ff1eb" opacity="1.000" fill="none" stroke="#000000" stroke-width="3.011" stroke-opacity="1.000" stroke-linecap="round" stroke-linejoin="round" d="M 315.685 840.854 Q 314.927 841.048 314.652 842.287 Q 314.376 843.526 315.117 843.714 Q 315.857 843.902 315.783 843.834 Q 315.708 843.767 315.677 843.824 Q 315.646 843.881 317.746 844.664 Q 319.846 845.448 322.580 845.394 Q 325.314 845.341 327.435 843.441 Q 329.555 841.540 330.391 840.336 Q 331.227 839.132 331.603 837.483 Q 331.979 835.833 331.977 835.302 Q 331.975 834.771 331.916 834.602 Q 331.857 834.433 332.059 834.127 Q 332.261 833.821 331.436 832.172 Q 330.611 830.524 328.576 830.340 Q 326.541 830.156 325.509 830.386 Q 324.476 830.616 323.612 831.033 Q 322.747 831.450 319.832 833.711 Q 316.917 835.972 314.359 840.347 Q 311.800 844.721 311.030 848.428 Q 310.259 852.135 310.180 854.787 Q 310.100 857.438 312.079 859.190 Q 314.057 860.943 317.632 860.665 Q 321.207 860.388 323.302 859.464 Q 325.397 858.539 329.944 855.747 Q 334.490 852.954 337.641 850.778 Q 340.792 848.602 343.594 846.910 "></path>
    <path id="STROKE_e741dad1-2866-4d4a-a6c7-18982361b512" opacity="1.000" fill="none" stroke="#000000" stroke-width="3.011" stroke-opacity="1.000" stroke-linecap="round" stroke-linejoin="round" d="M 352.761 844.864 Q 351.634 847.175 352.013 845.806 Q 352.392 844.436 350.592 863.524 Q 350.837 863.647 350.960 863.688 "></path>
    <path id="STROKE_3dcd0e4d-1e5c-40de-b013-9bf7aa4ca0f3" opacity="1.000" fill="none" stroke="#000000" stroke-width="3.011" stroke-opacity="1.000" stroke-linecap="round" stroke-linejoin="round" d="M 375.186 854.113 Q 375.278 854.623 374.940 852.967 Q 374.326 854.944 372.004 861.324 Q 369.682 867.704 369.079 871.830 Q 368.476 875.955 368.339 878.094 Q 368.202 880.233 368.884 881.366 "></path>
    <path id="STROKE_40c77224-8fd8-453c-9168-14b636b6b1ab" opacity="1.000" fill="none" stroke="#000000" stroke-width="3.011" stroke-opacity="1.000" stroke-linecap="round" stroke-linejoin="round" d="M 398.102 843.064 Q 397.586 845.028 397.856 844.414 Q 397.802 843.956 397.822 844.652 Q 397.842 845.348 402.392 845.455 Q 406.941 845.562 410.640 844.452 Q 414.340 843.342 417.117 842.044 Q 419.893 840.745 421.002 839.928 Q 422.110 839.110 422.848 837.552 Q 423.586 835.993 423.817 835.122 Q 424.048 834.250 424.074 833.809 Q 424.100 833.368 424.078 833.110 Q 424.056 832.852 424.089 832.343 Q 424.123 831.835 423.817 831.400 Q 423.512 830.964 422.980 830.184 Q 422.448 829.404 420.170 829.227 Q 417.891 829.051 417.230 828.817 Q 416.568 828.584 413.049 830.603 Q 409.530 832.623 405.850 836.349 Q 402.171 840.076 399.861 844.451 Q 397.550 848.827 396.857 851.891 Q 396.164 854.954 397.241 857.096 Q 398.318 859.238 402.529 859.896 Q 406.740 860.554 413.232 858.165 Q 419.724 855.776 423.617 853.653 Q 427.510 851.530 430.676 849.038 "></path>
    <path id="STROKE_24cd0b24-91ee-4cfe-ac43-a382b174427e" opacity="1.000" fill="none" stroke="#000000" stroke-width="3.011" stroke-opacity="1.000" stroke-linecap="round" stroke-linejoin="round" d="M 437.141 848.875 Q 438.389 846.788 438.205 847.483 Q 438.060 847.334 439.500 846.910 Q 440.940 846.486 441.177 846.497 Q 441.415 846.507 441.338 846.511 Q 441.261 846.515 441.439 846.562 Q 441.617 846.609 441.330 846.442 Q 441.044 846.275 442.256 846.802 Q 443.469 847.329 443.293 849.776 Q 443.118 852.222 443.673 852.215 Q 444.229 852.208 435.341 866.061 Q 435.231 866.134 435.798 865.102 Q 436.366 864.070 436.892 862.972 Q 437.419 861.875 437.413 861.969 Q 437.407 862.062 437.319 862.086 Q 437.230 862.109 437.214 862.116 Q 437.198 862.123 437.284 862.078 Q 437.369 862.032 437.947 861.669 Q 438.524 861.306 439.097 860.985 Q 439.670 860.664 439.965 860.693 Q 440.260 860.722 440.192 860.618 Q 440.123 860.514 441.950 859.967 Q 443.777 859.420 445.845 859.594 Q 447.912 859.769 448.899 860.114 Q 449.887 860.458 450.495 860.910 Q 451.103 861.362 451.791 861.478 "></path>
    <path id="STROKE_df2d2deb-6741-40cd-8285-1b4b5c2959b0" opacity="1.000" fill="none" stroke="#000000" stroke-width="3.011" stroke-opacity="1.000" stroke-linecap="round" stroke-linejoin="round" d="M 463.086 803.452 Q 462.386 802.804 462.677 800.506 Q 462.185 800.213 465.013 800.837 Q 467.840 801.460 470.042 804.552 Q 472.243 807.645 473.181 809.605 Q 474.119 811.564 474.397 812.312 Q 474.674 813.059 474.933 813.793 Q 475.192 814.528 475.479 815.299 Q 475.767 816.070 475.898 816.473 Q 476.029 816.877 476.416 818.778 Q 476.804 820.680 477.462 823.173 Q 478.121 825.666 478.022 830.320 Q 477.923 834.974 476.507 839.111 Q 475.090 843.248 470.740 849.122 Q 466.390 854.997 462.665 860.070 Q 458.940 865.143 457.193 867.862 Q 457.271 867.008 457.602 866.716 "></path>
    <circle id="STROKE_34312096-8603-42e0-bf6a-b8a781689247" opacity="1.000" fill="#000000" stroke="#000000" stroke-width="0.1" stroke-opacity="1.000" fill-opacity="1.000" cx="527.251" cy="824.567" r="1.505"></circle>
    <circle id="STROKE_d5c3755e-1338-4f9c-843c-58c05836901d" opacity="1.000" fill="#000000" stroke="#000000" stroke-width="0.1" stroke-opacity="1.000" fill-opacity="1.000" cx="526.597" cy="847.238" r="1.505"></circle>
    <path id="STROKE_db5670a7-ddc9-467f-b8a4-fbf349a44e96" opacity="1.000" fill="none" stroke="#000000" stroke-width="3.011" stroke-opacity="1.000" stroke-linecap="round" stroke-linejoin="round" d="M 582.332 810.245 Q 582.062 810.829 582.604 813.233 Q 583.145 815.636 583.638 819.390 Q 584.131 823.144 583.325 830.005 Q 582.519 836.866 581.263 842.495 Q 580.006 848.125 579.671 851.530 Q 579.335 854.934 579.273 856.640 Q 579.211 858.345 579.186 859.156 Q 579.161 859.968 579.145 860.185 Q 579.128 860.401 579.180 860.725 Q 579.231 861.049 579.713 863.033 "></path>
    <path id="STROKE_d37b7d1f-e454-4086-b766-b34515771cf6" opacity="1.000" fill="none" stroke="#000000" stroke-width="3.011" stroke-opacity="1.000" stroke-linecap="round" stroke-linejoin="round" d="M 571.201 835.698 Q 571.160 835.698 570.792 835.289 Q 572.568 834.492 572.565 834.527 Q 572.562 834.563 572.844 834.589 Q 573.127 834.615 572.570 834.307 Q 572.013 834.000 577.139 833.947 Q 582.266 833.895 585.766 834.394 Q 589.265 834.893 592.235 835.616 "></path>
    <path id="STROKE_77efa721-dc26-4791-acaf-0c83e004de11" opacity="1.000" fill="none" stroke="#000000" stroke-width="3.011" stroke-opacity="1.000" stroke-linecap="round" stroke-linejoin="round" d="M -1.835 768.000 L 700.000 768.000 "></path>
    <path id="STROKE_3c7279a8-35dd-44dc-9c78-aea749c565fd" opacity="1.000" fill="none" stroke="#000000" stroke-width="3.011" stroke-opacity="1.000" stroke-linecap="round" stroke-linejoin="round" d="M 18.068 774.887 Q 17.315 774.719 17.530 774.864 Q 17.746 775.009 17.412 774.903 Q 17.079 774.797 16.739 774.273 Q 16.399 773.749 16.393 773.491 Q 16.387 773.234 16.823 769.947 Q 17.258 766.660 17.756 764.945 Q 18.253 763.231 19.116 760.787 Q 19.979 758.342 21.792 751.171 Q 23.606 743.999 26.194 735.650 Q 28.782 727.300 30.280 722.615 Q 31.778 717.930 33.690 712.539 Q 35.602 707.147 36.917 704.780 Q 38.231 702.413 39.021 701.505 Q 39.811 700.597 40.915 699.394 Q 42.020 698.191 41.883 698.310 Q 41.746 698.429 41.843 698.427 Q 41.941 698.425 42.447 698.133 Q 42.952 697.841 44.512 697.281 Q 46.072 696.721 49.628 698.104 Q 53.183 699.488 55.005 700.510 Q 56.827 701.531 58.360 702.434 Q 59.893 703.337 60.822 703.965 Q 61.752 704.593 62.461 705.151 Q 63.171 705.709 64.230 706.682 Q 65.290 707.655 66.064 708.825 Q 66.839 709.994 67.804 712.713 Q 68.769 715.431 68.815 717.368 Q 68.862 719.305 68.847 720.152 Q 68.833 721.000 68.743 721.519 Q 68.654 722.038 68.464 722.728 Q 68.274 723.417 68.250 723.194 Q 68.226 722.972 67.825 724.339 Q 67.423 725.705 65.258 729.340 Q 63.093 732.974 58.805 736.782 Q 54.518 740.589 51.571 741.904 Q 48.625 743.219 46.546 743.609 Q 44.467 744.000 43.214 744.024 Q 41.961 744.049 41.247 744.314 Q 40.532 744.578 37.138 744.433 Q 33.745 744.288 31.280 743.822 Q 28.815 743.355 26.679 740.748 Q 26.567 740.213 27.963 740.370 "></path>
    <path id="STROKE_e40e32ce-1b8a-4322-9e18-008ffd6ee668" opacity="1.000" fill="none" stroke="#000000" stroke-width="3.011" stroke-opacity="1.000" stroke-linecap="round" stroke-linejoin="round" d="M 87.782 696.488 Q 87.998 697.471 88.009 697.470 Q 88.136 699.484 88.084 699.132 Q 88.746 699.965 87.928 711.671 Q 87.110 723.378 86.118 732.070 Q 85.125 740.763 84.804 744.997 Q 84.484 749.231 84.166 751.243 Q 83.847 753.254 83.719 754.220 Q 83.590 755.186 83.585 755.002 Q 83.579 754.818 83.402 757.742 L 83.364 757.742 Q 83.180 756.579 83.251 756.609 Q 83.213 756.231 83.099 755.703 "></path>
    <path id="STROKE_ba830313-ee9a-4927-8314-c63e289596f6" opacity="1.000" fill="none" stroke="#000000" stroke-width="3.011" stroke-opacity="1.000" stroke-linecap="round" stroke-linejoin="round" d="M 86.498 728.588 Q 86.461 728.588 86.045 728.286 Q 86.175 728.047 88.107 728.759 Q 90.038 729.471 93.243 729.251 Q 96.447 729.030 99.648 728.609 Q 102.849 728.187 104.988 727.528 Q 107.126 726.868 108.629 726.246 "></path>
    <path id="STROKE_8fedcc78-1699-4aa3-8511-64266ab4eae5" opacity="1.000" fill="none" stroke="#000000" stroke-width="3.011" stroke-opacity="1.000" stroke-linecap="round" stroke-linejoin="round" d="M 136.499 733.044 Q 134.969 733.044 135.404 733.044 Q 135.291 733.044 135.139 732.893 Q 135.758 733.123 135.419 732.811 Q 135.080 732.500 137.397 733.431 Q 139.714 734.362 141.444 735.085 Q 143.174 735.808 145.041 736.018 Q 146.909 736.229 150.562 735.661 Q 154.215 735.093 157.346 732.627 Q 160.477 730.161 161.751 728.454 Q 163.025 726.746 163.455 725.715 Q 163.884 724.683 163.635 723.199 Q 163.386 721.715 162.574 720.901 Q 161.763 720.088 161.487 719.832 Q 161.211 719.575 160.727 719.366 Q 160.243 719.156 160.176 719.110 Q 160.109 719.064 158.584 718.600 Q 157.059 718.137 154.979 718.405 Q 152.898 718.673 150.618 720.256 Q 148.338 721.839 144.715 726.367 Q 141.092 730.895 139.432 735.732 Q 137.773 740.570 137.169 743.815 Q 136.564 747.060 137.406 748.893 Q 138.248 750.726 138.794 751.590 Q 139.341 752.453 142.241 753.694 Q 145.142 754.935 148.355 754.698 Q 151.568 754.461 153.159 753.924 Q 154.750 753.387 155.400 753.120 Q 156.050 752.852 158.304 751.205 Q 160.558 749.558 162.783 747.546 "></path>
    <path id="STROKE_5dfb3725-25f3-4038-9a9f-fe9f9cc132f5" opacity="1.000" fill="none" stroke="#000000" stroke-width="3.011" stroke-opacity="1.000" stroke-linecap="round" stroke-linejoin="round" d="M 178.267 744.373 Q 179.183 743.520 175.850 746.224 Q 177.253 746.287 177.058 746.261 Q 178.018 745.956 178.458 745.879 Q 178.897 745.802 181.887 743.613 Q 184.876 741.424 186.912 740.300 Q 188.948 739.176 194.732 730.476 L 194.695 730.401 Q 192.893 731.265 193.524 731.043 Q 191.827 732.905 190.736 740.482 Q 189.644 748.060 189.486 752.122 Q 189.328 756.184 189.050 758.088 Q 188.772 759.992 188.263 761.134 Q 187.754 762.276 187.722 762.140 Q 187.691 762.005 187.745 762.065 Q 187.799 762.125 187.530 762.194 Q 187.262 762.264 186.726 762.274 "></path>
    <path id="STROKE_72eed193-6ce9-4723-873a-c1b8b701ef0f" opacity="1.000" fill="none" stroke="#000000" stroke-width="3.011" stroke-opacity="1.000" stroke-linecap="round" stroke-linejoin="round" d="M 176.303 763.557 Q 175.380 764.198 179.009 763.312 Q 182.638 762.426 185.934 762.001 Q 189.230 761.576 191.560 761.518 "></path>
    <path id="STROKE_3335db3c-122e-4189-b72f-635e829e5145" opacity="1.000" fill="none" stroke="#000000" stroke-width="3.011" stroke-opacity="1.000" stroke-linecap="round" stroke-linejoin="round" d="M 234.688 721.715 Q 234.688 721.639 234.612 720.506 Q 234.612 722.454 234.612 721.969 Q 234.612 721.484 234.612 724.887 "></path>
    <path id="STROKE_f77367a3-7b43-47b1-9955-31a4b5444616" opacity="1.000" fill="none" stroke="#000000" stroke-width="3.011" stroke-opacity="1.000" stroke-linecap="round" stroke-linejoin="round" d="M 232.271 741.654 Q 231.711 740.349 232.724 744.940 Q 232.875 744.978 233.555 744.827 "></path>
    <path id="STROKE_32de1572-6971-43c6-b80c-564d5689f71b" opacity="1.000" fill="none" stroke="#000000" stroke-width="3.011" stroke-opacity="1.000" stroke-linecap="round" stroke-linejoin="round" d="M 270.489 705.098 Q 270.177 705.570 271.017 702.757 Q 273.424 703.659 271.338 711.423 Q 269.251 719.188 267.913 724.324 Q 266.576 729.461 265.017 737.623 Q 263.458 745.785 262.876 750.375 Q 262.294 754.965 262.172 756.608 Q 262.051 758.251 262.216 759.206 Q 262.382 760.161 262.652 760.870 Q 262.921 761.578 263.512 761.563 Q 264.102 761.548 264.479 761.604 Q 264.855 761.660 266.211 761.113 Q 267.567 760.567 268.078 760.601 Q 268.589 760.635 270.087 759.722 Q 271.585 758.809 272.601 757.891 Q 273.617 756.973 274.039 755.703 "></path>
    <path id="STROKE_15071d5a-4a7c-48ae-bf89-e5f2aa68edf3" opacity="1.000" fill="none" stroke="#000000" stroke-width="3.011" stroke-opacity="1.000" stroke-linecap="round" stroke-linejoin="round" d="M 260.217 726.775 Q 260.179 726.775 260.141 726.775 Q 261.121 726.392 264.412 726.405 Q 267.704 726.417 269.926 726.546 Q 272.148 726.675 274.190 727.002 "></path>
    <path id="STROKE_245e56ea-95ce-48da-9542-cd3385072f19" opacity="1.000" fill="none" stroke="#000000" stroke-width="3.011" stroke-opacity="1.000" stroke-linecap="round" stroke-linejoin="round" d="M 426.080 787.273 Q 425.087 786.385 424.931 786.039 Q 424.775 785.694 424.909 785.876 Q 424.607 784.189 424.721 784.328 Q 424.772 782.033 424.796 782.704 Q 424.733 781.759 427.075 775.637 Q 429.417 769.516 430.776 765.780 Q 432.135 762.044 432.636 759.982 Q 433.137 757.920 433.730 755.413 Q 434.323 752.907 434.627 751.144 Q 434.932 749.380 435.614 746.474 Q 436.296 743.567 437.148 740.725 Q 438.000 737.884 438.841 734.697 Q 439.683 731.511 442.327 724.413 Q 444.971 717.315 446.481 713.636 Q 447.992 709.957 450.231 706.628 Q 452.469 703.299 453.874 701.782 Q 455.279 700.265 455.934 699.674 Q 456.590 699.083 457.234 698.514 Q 457.877 697.946 458.428 697.516 Q 458.979 697.086 459.595 696.731 Q 460.211 696.376 460.231 696.313 Q 460.251 696.251 461.561 696.042 Q 462.871 695.833 463.391 695.651 Q 463.912 695.469 466.480 697.198 Q 469.048 698.926 469.946 700.340 Q 470.844 701.754 472.982 705.345 Q 475.120 708.937 476.262 714.509 Q 477.404 720.082 477.353 723.058 Q 477.301 726.034 477.159 728.232 Q 477.018 730.430 475.511 733.166 Q 474.005 735.902 472.474 737.014 Q 470.943 738.126 469.473 738.639 Q 468.003 739.152 466.781 739.517 Q 465.559 739.881 464.797 740.044 Q 464.034 740.206 464.204 740.194 Q 464.374 740.181 462.510 740.504 Q 460.645 740.827 454.727 741.162 Q 448.809 741.497 442.243 743.240 Q 442.243 743.278 442.243 743.316 Q 442.319 743.316 442.696 743.316 "></path>
    <path id="STROKE_164d4445-f4ef-4196-a739-6d9d13068ce0" opacity="1.000" fill="none" stroke="#000000" stroke-width="3.011" stroke-opacity="1.000" stroke-linecap="round" stroke-linejoin="round" d="M 501.308 701.549 Q 500.408 701.835 499.653 709.976 Q 498.899 718.117 496.870 729.853 Q 494.840 741.588 493.964 747.207 Q 493.087 752.826 492.595 755.821 Q 492.103 758.815 491.715 760.687 Q 491.696 759.731 491.866 759.479 "></path>
    <path id="STROKE_73abbc56-cfa4-42bb-a294-89ce09c961aa" opacity="1.000" fill="none" stroke="#000000" stroke-width="3.011" stroke-opacity="1.000" stroke-linecap="round" stroke-linejoin="round" d="M 497.305 733.422 Q 497.191 733.422 496.776 733.422 Q 495.993 733.573 501.819 734.193 Q 507.645 734.814 511.193 735.234 Q 514.741 735.655 517.924 736.594 "></path>
    <path id="STROKE_0e43bf9f-9e8c-4694-859b-7625d17f1720" opacity="1.000" fill="none" stroke="#000000" stroke-width="3.011" stroke-opacity="1.000" stroke-linecap="round" stroke-linejoin="round" d="M 534.767 739.011 Q 534.729 739.011 534.390 739.124 Q 535.136 739.755 537.926 740.301 Q 540.716 740.847 543.128 740.768 Q 545.539 740.689 546.729 740.079 Q 547.920 739.470 549.907 738.118 Q 551.894 736.765 553.523 734.429 Q 555.151 732.093 555.936 729.827 Q 556.721 727.561 555.372 725.573 Q 554.023 723.585 552.933 723.063 Q 551.844 722.540 551.048 722.561 Q 550.252 722.582 549.802 722.489 Q 549.352 722.396 548.734 722.695 Q 548.116 722.995 546.494 724.120 Q 544.871 725.246 543.803 726.292 Q 542.734 727.339 539.808 730.079 Q 536.883 732.819 534.884 735.167 Q 532.884 737.514 531.643 741.609 Q 530.402 745.703 530.774 748.625 Q 531.146 751.547 532.352 753.160 Q 533.557 754.773 537.661 755.892 Q 541.766 757.010 546.883 755.931 Q 552.000 754.852 554.175 754.291 Q 556.350 753.731 557.530 753.233 Q 558.710 752.736 559.148 752.447 Q 559.585 752.158 559.577 752.161 Q 559.568 752.163 559.919 751.851 "></path>
    <path id="STROKE_3af123cd-26ca-48a6-a49e-f316dac0eb21" opacity="1.000" fill="none" stroke="#000000" stroke-width="3.011" stroke-opacity="1.000" stroke-linecap="round" stroke-linejoin="round" d="M 569.586 745.808 Q 569.031 744.732 569.209 744.751 Q 569.678 743.920 570.162 743.544 Q 570.646 743.168 570.672 743.196 Q 570.698 743.223 571.203 742.722 Q 571.709 742.221 574.284 740.796 Q 576.860 739.371 581.029 739.615 Q 580.912 738.380 581.388 740.978 Q 581.863 743.576 580.519 746.849 Q 579.176 750.122 575.253 756.422 Q 571.331 762.723 567.320 769.147 Q 568.049 768.456 569.136 767.098 Q 570.222 765.740 571.649 764.583 Q 573.076 763.426 574.549 762.559 Q 576.022 761.692 577.386 760.854 Q 578.751 760.016 578.924 760.053 Q 579.098 760.090 579.617 759.670 Q 580.136 759.250 582.004 759.155 Q 583.872 759.060 584.926 759.232 Q 585.980 759.404 586.092 759.667 Q 586.205 759.930 587.037 760.884 Q 587.869 761.838 587.555 761.540 Q 587.241 761.243 588.065 762.457 Q 588.888 763.672 590.032 763.935 Q 591.176 764.198 592.450 763.976 Q 593.724 763.755 594.889 762.802 "></path>
    <path id="STROKE_9d852c89-2ad9-4249-bd3c-cfbe9043a291" opacity="1.000" fill="none" stroke="#000000" stroke-width="3.011" stroke-opacity="1.000" stroke-linecap="round" stroke-linejoin="round" d="M 764.453 762.198 Q 764.117 760.955 762.528 758.868 Q 760.939 756.781 758.403 756.195 Q 755.868 755.609 753.522 756.938 Q 751.177 758.267 749.213 760.503 Q 747.249 762.739 746.309 765.977 Q 745.369 769.215 745.522 772.127 Q 745.674 775.038 746.258 776.486 Q 746.842 777.933 748.358 779.720 Q 749.874 781.508 753.236 782.329 Q 756.598 783.150 760.440 782.090 Q 764.281 781.031 766.705 779.019 Q 769.129 777.008 770.208 776.228 Q 771.287 775.447 772.459 764.690 Q 772.459 767.345 772.459 766.503 Q 772.459 768.454 772.459 768.240 Q 772.385 769.053 771.387 777.027 Q 770.388 785.002 769.631 790.084 Q 768.874 795.166 767.821 797.811 Q 766.767 800.455 765.516 803.293 Q 764.265 806.132 762.450 808.083 Q 760.635 810.034 759.060 810.705 Q 757.485 811.375 756.371 811.475 Q 755.257 811.574 754.883 811.166 Q 754.509 810.758 753.731 809.907 Q 752.954 809.056 751.866 806.370 Q 750.778 803.684 750.010 802.102 Q 749.243 800.521 748.063 798.905 "></path>
    <path id="STROKE_fe99bf65-a37c-4135-9e43-e63858ceeb75" opacity="1.000" fill="none" stroke="#000000" stroke-width="3.011" stroke-opacity="1.000" stroke-linecap="round" stroke-linejoin="round" d="M 779.438 784.536 Q 779.400 784.536 778.607 784.725 Q 778.607 784.800 778.683 785.027 Q 777.735 784.843 779.298 785.241 Q 780.861 785.640 782.949 784.885 Q 785.037 784.129 785.663 783.503 Q 786.289 782.876 787.692 781.678 Q 789.094 780.480 789.305 780.132 Q 789.516 779.784 793.411 773.736 Q 792.667 775.595 792.920 775.095 Q 792.406 776.441 792.391 776.379 Q 792.179 777.478 791.133 781.366 Q 790.087 785.254 789.698 791.794 Q 789.309 798.335 790.012 805.004 Q 789.921 803.490 789.937 803.871 L 789.937 803.569 "></path>
    <path id="STROKE_5db5f637-38a5-47bb-8b1c-87ff7b4effe8" opacity="1.000" fill="none" stroke="#000000" stroke-width="3.011" stroke-opacity="1.000" stroke-linecap="round" stroke-linejoin="round" d="M 801.493 778.796 Q 801.270 778.741 800.614 778.347 Q 799.958 777.953 799.944 777.890 Q 799.869 777.890 799.831 777.890 Q 801.019 778.669 800.851 778.607 Q 802.458 779.315 802.097 779.174 Q 803.541 779.699 803.343 779.627 Q 803.569 779.815 805.834 780.164 Q 808.098 780.513 812.822 779.098 Q 812.494 779.343 812.774 779.211 Q 813.055 779.078 811.986 779.495 Q 810.918 779.911 809.150 781.687 Q 807.383 783.463 806.794 784.238 Q 806.205 785.014 806.126 785.786 Q 806.047 786.558 805.971 786.606 Q 805.896 786.654 806.002 786.651 Q 806.108 786.648 805.917 786.544 Q 805.726 786.440 805.822 786.599 Q 805.918 786.758 806.085 786.997 Q 806.251 787.236 806.908 788.028 Q 807.565 788.819 807.521 788.713 Q 807.476 788.606 807.446 788.754 Q 807.416 788.902 807.773 788.687 Q 808.131 788.472 809.460 790.831 Q 810.790 793.191 810.937 794.174 Q 811.083 795.157 811.291 796.004 Q 811.498 796.852 811.568 797.226 Q 811.638 797.601 811.639 797.643 Q 811.641 797.685 811.784 798.398 Q 811.927 799.112 811.911 799.161 Q 811.896 799.210 811.649 799.705 Q 811.402 800.200 811.249 800.611 Q 811.095 801.021 810.936 800.884 Q 810.777 800.747 810.973 800.932 Q 811.168 801.118 809.394 801.338 Q 807.620 801.558 806.670 801.291 Q 805.719 801.025 804.997 800.445 Q 804.274 799.865 803.872 799.610 Q 803.470 799.356 803.331 799.297 Q 803.192 799.239 803.582 799.435 Q 803.971 799.632 800.737 797.829 Q 800.737 797.753 800.737 797.527 "></path>
    <path id="STROKE_f8114868-ca80-4b08-94df-4e2fbd79ad07" opacity="1.000" fill="none" stroke="#000000" stroke-width="3.011" stroke-opacity="1.000" stroke-linecap="round" stroke-linejoin="round" d="M 618.823 733.206 Q 619.004 732.805 619.462 732.290 Q 619.919 731.775 620.015 731.177 Q 618.878 731.852 619.274 731.708 Q 618.765 731.626 617.954 735.702 Q 618.508 735.818 618.626 735.829 Q 618.743 735.840 618.646 735.766 Q 618.618 735.726 618.852 735.535 Q 619.086 735.345 619.515 734.496 Q 619.944 733.647 619.718 733.158 Q 619.491 732.670 619.157 732.494 Q 618.823 732.319 618.809 732.326 Q 618.794 732.332 618.798 732.343 Q 618.803 732.354 618.801 732.350 Q 618.799 732.347 618.786 732.361 Q 618.773 732.375 618.794 732.352 Q 618.815 732.329 618.857 732.249 Q 618.899 732.169 618.865 732.169 Q 618.830 732.169 618.824 732.177 Q 618.817 732.185 618.847 732.198 Q 618.877 732.210 618.847 732.209 Q 618.817 732.209 618.333 732.843 Q 617.849 733.476 617.986 733.947 "></path>
    <path id="STROKE_36047eb4-3d2d-413f-8c90-1c4f7cc54e6a" opacity="1.000" fill="none" stroke="#000000" stroke-width="3.011" stroke-opacity="1.000" stroke-linecap="round" stroke-linejoin="round" d="M 617.889 754.494 Q 617.889 754.510 617.889 754.526 Q 617.873 754.526 617.825 754.526 Q 617.809 754.494 617.696 754.268 Q 617.680 754.268 617.487 754.220 Q 617.178 753.821 617.229 757.457 Q 617.640 757.518 617.484 757.560 Q 617.327 757.602 617.973 757.304 Q 618.620 757.005 618.630 756.910 Q 618.640 756.816 618.737 756.706 Q 618.833 756.596 618.945 756.296 Q 619.057 755.996 619.167 755.712 Q 619.277 755.429 619.275 755.189 Q 619.273 754.949 619.285 755.037 Q 619.297 755.126 619.306 755.119 Q 619.315 755.112 619.311 755.069 Q 619.307 755.025 619.001 754.494 Q 618.396 754.122 617.829 754.718 Q 617.263 755.314 616.941 755.874 Q 616.618 756.435 616.676 756.729 Q 616.733 757.024 616.729 757.001 Q 616.724 756.979 616.788 757.029 Q 616.852 757.078 616.717 757.035 Q 616.583 756.992 617.043 757.181 Q 617.503 757.370 617.835 757.239 Q 618.166 757.108 618.198 757.061 Q 618.229 757.014 618.159 757.137 Q 618.089 757.261 618.598 756.490 Q 618.520 756.427 618.501 756.265 "></path>
    <path id="STROKE_0a3e0118-ba76-42f3-961f-4cfc0b585415" opacity="1.000" fill="none" stroke="#000000" stroke-width="3.011" stroke-opacity="1.000" stroke-linecap="round" stroke-linejoin="round" d="M 651.770 723.190 Q 651.651 722.985 652.125 721.644 Q 652.157 721.644 652.221 721.644 Q 652.622 721.244 652.212 726.413 Q 651.803 731.583 651.022 736.555 Q 650.242 741.527 649.909 743.945 Q 649.577 746.363 649.454 748.154 Q 649.331 749.944 649.380 753.579 Q 649.428 757.214 649.419 760.114 Q 649.262 760.343 650.100 759.993 Q 650.938 759.644 652.672 757.521 "></path>
    <path id="STROKE_2a1ac44e-fbbd-4081-a9b0-0a541c15160a" opacity="1.000" fill="none" stroke="#000000" stroke-width="3.011" stroke-opacity="1.000" stroke-linecap="round" stroke-linejoin="round" d="M 646.199 740.420 Q 647.201 740.334 647.020 740.323 Q 647.748 740.410 650.353 740.018 Q 652.958 739.626 654.633 739.193 Q 656.308 738.759 657.632 738.327 "></path>
    <path id="STROKE_a67f2c8d-cc3b-466d-9982-93b6b61fca32" opacity="1.000" fill="none" stroke="#000000" stroke-width="3.011" stroke-opacity="1.000" stroke-linecap="round" stroke-linejoin="round" d="M 1303.842 904.536 Q 1302.410 903.751 1305.888 891.732 Q 1309.365 879.714 1311.481 868.999 Q 1313.596 858.283 1314.855 852.406 Q 1316.113 846.529 1317.721 842.596 Q 1319.329 838.664 1321.851 834.524 Q 1324.373 830.383 1327.585 825.867 Q 1330.797 821.351 1334.426 818.893 Q 1338.054 816.435 1340.330 815.946 Q 1342.607 815.457 1344.229 815.197 Q 1345.851 814.937 1347.970 815.167 Q 1350.089 815.397 1352.038 816.804 Q 1353.987 818.211 1355.418 821.536 Q 1356.849 824.860 1357.010 828.684 Q 1357.170 832.509 1356.720 835.595 Q 1356.270 838.680 1354.041 842.923 Q 1351.812 847.167 1348.166 850.642 Q 1344.519 854.118 1342.993 854.831 Q 1341.467 855.543 1337.093 856.060 Q 1332.720 856.577 1317.563 857.167 Q 1319.149 857.118 1318.788 857.085 L 1319.115 857.003 "></path>
    <path id="STROKE_ffc6cc0e-b1fa-4d0f-90fe-dd0577bfe9f2" opacity="1.000" fill="none" stroke="#000000" stroke-width="3.011" stroke-opacity="1.000" stroke-linecap="round" stroke-linejoin="round" d="M 1383.554 810.206 Q 1382.839 809.186 1384.175 818.456 Q 1385.511 827.725 1382.165 860.188 L 1382.125 860.188 Q 1382.064 859.007 1382.078 859.481 Q 1382.092 859.954 1382.084 858.065 "></path>
    <path id="STROKE_be840970-7944-43fb-8ea5-92f5f2237d7d" opacity="1.000" fill="none" stroke="#000000" stroke-width="3.011" stroke-opacity="1.000" stroke-linecap="round" stroke-linejoin="round" d="M 1384.289 836.014 Q 1385.273 835.151 1392.190 835.305 Q 1399.108 835.460 1403.244 835.292 Q 1407.380 835.123 1409.852 835.034 "></path>
    <path id="STROKE_76bfe534-1c5e-4479-96de-e0d8df8a0264" opacity="1.000" fill="none" stroke="#000000" stroke-width="3.011" stroke-opacity="1.000" stroke-linecap="round" stroke-linejoin="round" d="M 1451.423 800.896 Q 1450.429 799.447 1450.729 799.916 Q 1448.834 799.781 1449.504 799.916 Q 1448.177 801.678 1448.605 801.141 Q 1449.444 800.629 1446.931 803.432 Q 1444.417 806.236 1441.802 810.695 Q 1439.187 815.155 1437.097 823.774 Q 1435.008 832.394 1434.545 837.590 Q 1434.082 842.786 1434.106 845.154 Q 1434.131 847.523 1433.931 849.693 Q 1433.732 851.864 1434.155 855.992 Q 1434.577 860.120 1435.416 862.394 Q 1436.255 864.667 1437.770 867.129 Q 1439.284 869.591 1441.387 870.110 Q 1443.490 870.630 1447.013 867.784 "></path>
    <path id="STROKE_2bc7b778-3833-439a-b115-7a82eee33886" opacity="1.000" fill="none" stroke="#000000" stroke-width="3.011" stroke-opacity="1.000" stroke-linecap="round" stroke-linejoin="round" d="M 1466.287 840.179 Q 1466.532 839.877 1465.359 840.241 Q 1464.185 840.606 1463.560 841.536 Q 1462.935 842.466 1463.486 843.602 Q 1464.038 844.739 1464.192 844.742 Q 1464.347 844.745 1464.409 844.756 Q 1464.470 844.766 1464.211 844.745 Q 1463.952 844.724 1466.560 845.763 Q 1469.169 846.802 1472.526 845.888 Q 1475.883 844.974 1477.619 844.106 Q 1479.354 843.238 1480.873 841.904 Q 1482.391 840.570 1483.047 839.602 Q 1483.703 838.635 1484.102 837.322 Q 1484.501 836.008 1484.415 835.184 Q 1484.328 834.360 1484.335 834.465 Q 1484.341 834.570 1483.751 834.116 Q 1483.161 833.662 1482.149 833.535 Q 1481.137 833.407 1480.391 833.457 Q 1479.645 833.507 1479.150 833.560 Q 1478.656 833.612 1477.748 833.870 Q 1476.840 834.127 1476.561 834.427 Q 1476.282 834.726 1475.681 834.792 Q 1475.079 834.858 1470.965 838.227 Q 1466.851 841.596 1463.334 845.425 Q 1459.816 849.254 1459.116 852.444 Q 1458.415 855.635 1458.318 857.614 Q 1458.221 859.594 1458.835 860.490 Q 1459.448 861.386 1460.132 861.800 Q 1460.815 862.214 1460.807 862.223 Q 1460.799 862.233 1463.597 863.069 Q 1466.394 863.905 1472.084 862.165 Q 1477.774 860.424 1481.181 858.578 Q 1484.589 856.731 1486.869 854.962 "></path>
    <path id="STROKE_4557b4e7-0de5-424c-9a29-c5296c1f4616" opacity="1.000" fill="none" stroke="#000000" stroke-width="3.011" stroke-opacity="1.000" stroke-linecap="round" stroke-linejoin="round" d="M 1492.259 855.697 Q 1492.252 855.994 1495.906 855.120 Q 1499.560 854.245 1508.103 844.263 Q 1507.205 844.838 1507.589 844.331 Q 1507.973 843.825 1506.463 845.602 Q 1504.953 847.380 1503.871 849.923 Q 1502.789 852.466 1502.469 854.005 Q 1502.149 855.544 1502.026 856.517 Q 1501.904 857.490 1501.774 858.434 Q 1501.643 859.377 1501.585 859.995 Q 1501.526 860.614 1501.575 861.919 Q 1501.624 863.225 1501.794 864.200 Q 1501.965 865.174 1502.080 865.580 Q 1502.195 865.985 1502.301 866.162 Q 1502.407 866.339 1502.248 866.105 Q 1502.088 865.872 1502.396 866.620 Q 1502.703 867.369 1502.978 867.735 Q 1503.254 868.102 1504.428 868.927 Q 1504.510 868.846 1504.510 868.519 "></path>
    <path id="STROKE_3ee4e4bf-bdca-49f1-895f-ac81739cce17" opacity="1.000" fill="none" stroke="#000000" stroke-width="3.011" stroke-opacity="1.000" stroke-linecap="round" stroke-linejoin="round" d="M 1494.954 873.174 Q 1496.204 871.802 1495.863 872.168 Q 1495.522 872.534 1495.877 872.171 Q 1496.232 871.808 1496.389 871.653 Q 1496.547 871.499 1497.125 871.037 Q 1497.704 870.576 1497.654 870.734 Q 1497.604 870.892 1497.840 870.832 Q 1498.077 870.772 1498.497 870.793 Q 1498.917 870.815 1499.976 870.804 Q 1501.034 870.793 1501.549 870.804 Q 1502.064 870.815 1503.242 870.811 Q 1504.421 870.808 1506.633 870.479 "></path>
    <path id="STROKE_0fb5626b-6343-428f-8b18-b3cbea31e531" opacity="1.000" fill="none" stroke="#000000" stroke-width="3.011" stroke-opacity="1.000" stroke-linecap="round" stroke-linejoin="round" d="M 1498.139 874.399 Q 1498.098 874.317 1498.139 873.419 Q 1499.243 873.180 1499.242 873.256 Q 1498.944 873.179 1499.850 873.306 Q 1500.757 873.432 1502.753 873.658 Q 1504.749 873.883 1507.030 873.801 Q 1509.312 873.719 1510.766 873.354 Q 1512.221 872.989 1513.575 873.092 "></path>
    <path id="STROKE_b72bc6ab-c19d-4752-8b8d-0b67a0764658" opacity="1.000" fill="none" stroke="#000000" stroke-width="3.011" stroke-opacity="1.000" stroke-linecap="round" stroke-linejoin="round" d="M 1498.221 874.971 Q 1496.971 873.779 1497.404 874.072 L 1497.404 873.991 Q 1497.895 873.934 1497.321 874.023 Q 1496.748 874.112 1499.293 873.884 Q 1501.838 873.657 1504.557 873.478 Q 1507.277 873.300 1508.583 873.467 Q 1509.889 873.634 1510.658 873.877 Q 1511.426 874.120 1511.861 874.249 Q 1512.295 874.378 1512.792 874.512 Q 1513.290 874.645 1513.716 874.769 Q 1514.143 874.892 1514.975 875.117 Q 1515.808 875.343 1517.332 875.706 "></path>
    <path id="STROKE_1978f586-d9f9-4eb4-af5f-a5e065fa484c" opacity="1.000" fill="none" stroke="#000000" stroke-width="3.011" stroke-opacity="1.000" stroke-linecap="round" stroke-linejoin="round" d="M 1540.364 862.557 Q 1540.983 862.645 1539.465 862.312 Q 1539.845 862.776 1533.585 880.484 L 1533.667 880.524 "></path>
    <path id="STROKE_11be446a-5b93-47f4-b802-2095305f7cde" opacity="1.000" fill="none" stroke="#000000" stroke-width="3.011" stroke-opacity="1.000" stroke-linecap="round" stroke-linejoin="round" d="M 1554.574 845.243 Q 1554.272 845.243 1552.859 845.243 Q 1552.646 845.971 1557.032 846.175 Q 1561.418 846.380 1563.821 846.488 Q 1566.225 846.595 1568.173 845.814 Q 1570.120 845.032 1571.499 844.511 Q 1572.878 843.989 1574.874 842.134 Q 1576.869 840.279 1577.984 838.677 Q 1579.099 837.075 1579.609 835.204 Q 1580.118 833.333 1578.048 832.487 Q 1575.979 831.640 1574.192 831.758 Q 1572.405 831.877 1571.845 832.160 Q 1571.284 832.443 1570.671 832.784 Q 1570.058 833.125 1568.412 834.067 Q 1566.767 835.008 1563.981 837.022 Q 1561.196 839.035 1559.762 840.284 Q 1558.328 841.532 1557.313 842.438 Q 1556.298 843.343 1555.608 844.027 Q 1554.917 844.712 1554.356 845.422 Q 1553.794 846.132 1553.583 846.607 Q 1553.373 847.082 1552.927 847.848 Q 1552.482 848.614 1551.596 851.268 Q 1550.710 853.922 1551.398 855.669 Q 1552.087 857.416 1552.454 858.207 Q 1552.821 858.997 1556.069 860.105 Q 1559.317 861.212 1563.346 861.343 Q 1567.376 861.474 1571.682 859.900 Q 1575.989 858.326 1578.610 857.238 Q 1581.231 856.150 1585.447 853.573 "></path>
    <path id="STROKE_5b0cab0b-5a4e-4b15-84a8-25b1d3dcdf15" opacity="1.000" fill="none" stroke="#000000" stroke-width="3.011" stroke-opacity="1.000" stroke-linecap="round" stroke-linejoin="round" d="M 1593.042 853.982 Q 1592.895 852.248 1592.604 852.750 Q 1592.314 853.252 1592.747 852.148 Q 1593.179 851.044 1593.875 850.788 Q 1594.571 850.533 1594.695 850.414 Q 1594.819 850.294 1595.372 850.137 Q 1595.924 849.980 1596.359 849.823 Q 1596.794 849.667 1597.728 849.764 Q 1598.662 849.861 1599.432 850.159 Q 1600.201 850.456 1600.176 850.550 Q 1600.150 850.644 1600.049 850.567 Q 1599.948 850.490 1600.504 850.933 Q 1601.061 851.377 1601.686 854.196 Q 1602.311 857.015 1601.466 858.801 Q 1600.621 860.586 1599.935 861.741 Q 1599.249 862.896 1598.947 863.270 Q 1598.646 863.644 1597.700 865.103 Q 1596.755 866.562 1593.205 869.907 Q 1593.692 868.800 1593.540 869.109 Q 1593.387 869.417 1593.724 868.813 Q 1594.060 868.209 1594.365 867.862 Q 1594.670 867.516 1594.760 867.475 Q 1594.849 867.434 1595.932 866.581 Q 1597.016 865.728 1597.258 865.714 Q 1597.501 865.701 1597.447 865.624 Q 1597.394 865.548 1598.874 865.032 Q 1600.354 864.517 1601.478 864.348 Q 1602.602 864.179 1603.353 864.367 Q 1604.105 864.554 1604.696 865.066 Q 1605.288 865.578 1605.245 865.560 Q 1605.203 865.543 1605.856 866.252 Q 1606.508 866.962 1607.561 867.863 Q 1608.615 868.763 1609.241 869.205 Q 1609.868 869.646 1611.092 870.071 "></path>
    <path id="STROKE_c4d51970-92da-46bf-961a-e62d8faeb231" opacity="1.000" fill="none" stroke="#000000" stroke-width="3.011" stroke-opacity="1.000" stroke-linecap="round" stroke-linejoin="round" d="M 1622.208 806.343 Q 1622.126 806.343 1621.228 805.690 Q 1622.381 805.715 1622.249 805.894 Q 1622.508 806.801 1625.820 809.820 Q 1629.132 812.839 1631.410 817.085 Q 1633.688 821.330 1634.195 823.708 Q 1634.703 826.085 1634.935 827.889 Q 1635.167 829.693 1635.541 834.772 Q 1635.914 839.852 1633.560 847.444 Q 1631.206 855.036 1629.690 858.722 Q 1628.174 862.407 1625.389 867.140 Q 1622.604 871.872 1617.757 877.560 Q 1617.394 876.416 1618.124 873.150 "></path>
    <path id="STROKE_38355d92-e116-4843-ab73-1a2044debc59" opacity="1.000" fill="none" stroke="#000000" stroke-width="3.011" stroke-opacity="1.000" stroke-linecap="round" stroke-linejoin="round" d="M 1675.866 831.335 Q 1676.528 831.522 1673.008 830.518 Q 1672.842 830.990 1683.937 831.530 Q 1695.031 832.071 1700.815 832.341 Q 1706.599 832.611 1708.973 832.753 Q 1711.347 832.894 1712.559 833.049 Q 1713.770 833.204 1715.150 833.540 "></path>
    <path id="STROKE_658d23a3-d971-42b2-82cb-4960edfd0a7e" opacity="1.000" fill="none" stroke="#000000" stroke-width="3.011" stroke-opacity="1.000" stroke-linecap="round" stroke-linejoin="round" d="M 1673.988 849.547 Q 1673.845 848.894 1673.171 851.017 Q 1673.809 852.264 1682.001 852.521 Q 1690.194 852.778 1696.745 851.525 Q 1703.296 850.273 1707.212 848.892 Q 1711.128 847.510 1715.314 846.852 "></path>
    <path id="STROKE_60288d04-57ea-4e44-94c1-95f00ee8daa8" opacity="1.000" fill="none" stroke="#000000" stroke-width="3.011" stroke-opacity="1.000" stroke-linecap="round" stroke-linejoin="round" d="M 1713.762 826.026 Q 1713.682 826.042 1713.478 825.681 Q 1713.274 825.321 1712.615 824.377 Q 1711.956 823.434 1711.994 823.506 Q 1712.032 823.579 1712.106 823.653 Q 1712.181 823.726 1711.720 823.168 Q 1710.911 824.167 1716.052 825.559 Q 1721.194 826.951 1724.872 828.596 Q 1728.551 830.240 1729.676 830.974 Q 1730.802 831.708 1731.370 832.369 Q 1731.939 833.031 1732.671 834.313 Q 1733.403 835.596 1733.365 835.594 Q 1733.326 835.592 1733.291 835.557 Q 1733.256 835.523 1733.208 835.492 Q 1733.159 835.461 1733.959 837.635 Q 1734.760 839.809 1730.010 845.911 Q 1725.259 852.012 1715.151 858.041 Q 1714.813 856.643 1714.905 856.612 Q 1715.057 854.093 1715.191 854.366 L 1715.314 853.957 "></path>
    <path id="STROKE_176195b1-e3fc-4e38-b116-effa2a99e79c" opacity="1.000" fill="none" stroke="#000000" stroke-width="3.011" stroke-opacity="1.000" stroke-linecap="round" stroke-linejoin="round" d="M 1793.474 800.463 Q 1793.478 800.138 1793.666 799.219 Q 1793.853 798.301 1793.877 798.243 Q 1793.902 798.185 1793.877 798.435 Q 1793.852 798.685 1793.923 797.441 Q 1792.607 799.042 1792.943 798.830 Q 1791.607 802.577 1791.673 801.746 Q 1791.740 800.915 1789.400 806.865 Q 1787.060 812.816 1785.543 822.664 Q 1784.027 832.512 1783.426 839.661 Q 1782.824 846.810 1783.906 851.812 Q 1784.987 856.814 1786.076 859.493 Q 1787.165 862.171 1788.964 863.601 Q 1790.763 865.031 1795.434 861.961 "></path>
    <path id="STROKE_308a89e7-9a5b-4cbd-95ea-d55aa6bc09a9" opacity="1.000" fill="none" stroke="#000000" stroke-width="3.011" stroke-opacity="1.000" stroke-linecap="round" stroke-linejoin="round" d="M 1804.254 836.235 Q 1804.084 836.115 1803.899 835.328 Q 1803.714 834.541 1803.764 833.458 Q 1804.489 832.027 1805.905 840.295 Q 1807.321 848.563 1808.084 853.597 Q 1808.847 858.631 1809.377 860.839 Q 1809.908 863.047 1810.961 863.637 Q 1812.014 864.226 1813.009 864.047 Q 1814.004 863.868 1815.030 862.699 Q 1816.056 861.531 1817.966 857.757 Q 1819.876 853.984 1821.149 850.880 Q 1822.423 847.777 1823.892 844.536 Q 1825.360 841.295 1826.796 837.215 Q 1826.796 838.618 1826.796 838.603 Q 1826.701 840.714 1826.673 840.318 Q 1826.592 840.890 1826.551 841.870 "></path>
    <path id="STROKE_24848920-0e2d-4a8e-8dfb-97abb3281ec6" opacity="1.000" fill="none" stroke="#000000" stroke-width="3.011" stroke-opacity="1.000" stroke-linecap="round" stroke-linejoin="round" d="M 1835.290 853.957 Q 1834.056 853.434 1834.269 853.549 Q 1834.065 853.467 1833.044 853.835 Q 1832.980 855.305 1833.003 855.141 Q 1835.248 856.377 1834.751 856.154 Q 1834.254 855.931 1835.224 856.103 Q 1836.194 856.274 1837.254 856.040 Q 1838.313 855.806 1838.243 855.815 Q 1838.172 855.824 1838.882 855.487 Q 1839.592 855.150 1839.588 855.156 Q 1839.585 855.161 1839.586 855.155 Q 1839.587 855.150 1840.788 854.298 Q 1841.990 853.446 1842.911 852.240 Q 1843.833 851.035 1844.237 850.465 Q 1844.641 849.894 1844.666 849.965 Q 1844.690 850.036 1844.561 850.284 Q 1844.432 850.533 1845.172 848.894 L 1845.254 848.894 Q 1844.375 850.235 1844.478 850.241 Q 1843.502 852.421 1843.702 851.956 Q 1843.128 853.787 1842.529 854.447 Q 1841.930 855.106 1840.202 859.827 Q 1838.475 864.548 1837.738 868.070 Q 1837.000 871.591 1836.760 874.211 Q 1837.232 873.920 1837.087 873.966 "></path>
    <path id="STROKE_c5bb3ddd-f5ab-4265-b90b-2c91ea6d4d45" opacity="1.000" fill="none" stroke="#000000" stroke-width="3.011" stroke-opacity="1.000" stroke-linecap="round" stroke-linejoin="round" d="M 1831.859 871.925 Q 1831.418 871.619 1829.899 872.456 Q 1829.815 874.130 1834.250 873.793 Q 1838.685 873.456 1842.395 871.925 "></path>
    <path id="STROKE_79543259-37f2-46aa-9f87-38fa489d36e8" opacity="1.000" fill="none" stroke="#000000" stroke-width="3.011" stroke-opacity="1.000" stroke-linecap="round" stroke-linejoin="round" d="M 1865.018 859.511 Q 1863.878 860.322 1864.242 860.205 Q 1864.013 862.314 1864.079 861.757 Q 1864.082 861.734 1863.978 862.523 Q 1863.874 863.311 1863.849 863.392 Q 1863.824 863.473 1863.888 863.352 Q 1863.951 863.231 1863.632 863.925 Q 1863.313 864.620 1862.160 871.476 Q 1862.308 871.520 1862.405 871.516 "></path>
    <path id="STROKE_7f1f86fa-5016-4059-bbdd-3c4b892c2373" opacity="1.000" fill="none" stroke="#000000" stroke-width="3.011" stroke-opacity="1.000" stroke-linecap="round" stroke-linejoin="round" d="M 1884.783 830.926 Q 1884.673 830.548 1884.620 829.293 Q 1884.783 829.211 1885.191 829.211 Q 1885.333 830.046 1885.815 830.998 Q 1886.296 831.950 1886.740 838.454 Q 1887.185 844.958 1887.165 851.001 Q 1887.146 857.044 1887.142 860.021 Q 1887.138 862.997 1887.896 864.881 Q 1888.654 866.765 1889.582 867.035 Q 1890.511 867.305 1891.562 866.400 Q 1892.612 865.496 1893.838 864.137 Q 1895.063 862.777 1900.337 855.651 Q 1905.610 848.525 1910.510 832.641 Q 1910.360 833.906 1909.938 835.336 "></path>
    <path id="STROKE_0613c587-8a38-4b72-a3fe-7c260b3069cc" opacity="1.000" fill="none" stroke="#000000" stroke-width="3.011" stroke-opacity="1.000" stroke-linecap="round" stroke-linejoin="round" d="M 1909.203 859.593 Q 1909.039 859.593 1906.671 859.021 Q 1906.926 857.384 1918.105 856.285 Q 1919.989 857.777 1916.792 864.126 Q 1913.596 870.476 1905.936 879.030 Q 1905.724 879.285 1906.170 878.986 Q 1906.617 878.688 1909.213 876.668 Q 1911.810 874.648 1913.478 873.550 Q 1915.146 872.453 1915.780 872.066 Q 1916.415 871.680 1917.281 871.400 Q 1918.147 871.120 1919.618 870.553 Q 1921.089 869.987 1921.656 869.983 Q 1922.224 869.979 1922.264 869.980 Q 1922.305 869.982 1922.506 869.905 Q 1922.707 869.829 1924.639 870.455 "></path>
    <path id="STROKE_4f550bed-f61f-42db-a916-f2b09f7d442c" opacity="1.000" fill="none" stroke="#000000" stroke-width="3.011" stroke-opacity="1.000" stroke-linecap="round" stroke-linejoin="round" d="M 1935.338 812.632 Q 1935.215 812.632 1934.194 812.305 Q 1934.920 813.141 1936.481 818.649 Q 1938.043 824.158 1939.755 829.554 Q 1941.466 834.951 1942.291 837.901 Q 1943.115 840.852 1942.783 846.247 Q 1942.451 851.643 1941.894 854.073 Q 1941.336 856.502 1940.562 858.618 Q 1939.789 860.733 1938.402 862.830 Q 1937.015 864.927 1936.352 865.927 Q 1935.690 866.927 1933.908 868.413 Q 1933.886 868.585 1933.786 868.005 "></path>
    <path id="STROKE_f9205d17-0ef5-4460-b355-de4aa30c0b7e" opacity="1.000" fill="none" stroke="#000000" stroke-width="3.011" stroke-opacity="1.000" stroke-linecap="round" stroke-linejoin="round" d="M 1200.000 768.000 L 2026.205 768.000 "></path>
    <path id="STROKE_9006210e-e9ed-47f6-86ad-1806bf742d98" opacity="1.000" fill="none" stroke="#000000" stroke-width="3.011" stroke-opacity="1.000" stroke-linecap="round" stroke-linejoin="round" d="M 1221.139 781.010 Q 1221.098 781.010 1220.526 781.091 Q 1220.302 780.628 1220.111 779.702 Q 1219.921 778.776 1219.916 778.103 Q 1219.911 777.430 1219.925 777.652 Q 1219.939 777.874 1219.872 776.941 Q 1219.804 776.007 1220.219 773.837 Q 1220.635 771.666 1222.501 765.869 Q 1224.367 760.072 1224.960 754.800 Q 1225.553 749.529 1227.559 741.509 Q 1229.565 733.490 1232.984 724.650 Q 1236.403 715.810 1238.450 711.262 Q 1240.498 706.715 1242.771 703.417 Q 1245.044 700.119 1246.999 698.913 Q 1248.954 697.707 1249.823 697.229 Q 1250.691 696.751 1252.125 698.507 Q 1253.558 700.263 1254.822 702.823 Q 1256.086 705.383 1257.072 709.147 Q 1258.058 712.911 1259.283 717.340 Q 1260.507 721.770 1261.028 723.990 Q 1261.550 726.211 1261.834 727.555 Q 1262.118 728.899 1261.877 731.051 Q 1261.637 733.202 1260.964 734.761 Q 1260.292 736.320 1259.632 737.498 Q 1258.973 738.676 1257.008 741.772 Q 1255.042 744.868 1250.491 746.972 Q 1245.939 749.076 1243.454 749.604 Q 1240.969 750.132 1239.999 750.371 Q 1239.030 750.609 1235.764 750.150 Q 1232.498 749.691 1230.367 746.953 Q 1230.999 746.695 1230.541 746.772 Q 1230.082 746.848 1232.328 746.545 "></path>
    <path id="STROKE_ccc89628-59f6-4f22-b49a-936696f28f72" opacity="1.000" fill="none" stroke="#000000" stroke-width="3.011" stroke-opacity="1.000" stroke-linecap="round" stroke-linejoin="round" d="M 1280.514 705.791 Q 1280.555 704.749 1280.269 702.851 Q 1280.081 703.194 1280.673 719.719 Q 1281.265 736.243 1282.066 753.283 Q 1283.450 752.084 1283.005 752.302 L 1283.127 752.180 "></path>
    <path id="STROKE_06e6ebd4-5358-4545-bed0-7289111c7338" opacity="1.000" fill="none" stroke="#000000" stroke-width="3.011" stroke-opacity="1.000" stroke-linecap="round" stroke-linejoin="round" d="M 1277.900 724.820 Q 1277.998 725.073 1277.910 724.784 Q 1277.823 724.495 1277.998 725.569 Q 1278.173 726.643 1278.616 726.917 Q 1279.059 727.192 1279.820 727.734 Q 1280.580 728.277 1280.574 728.089 Q 1280.568 727.902 1280.482 728.168 Q 1280.396 728.434 1284.882 729.152 Q 1289.369 729.870 1292.797 729.554 Q 1296.225 729.239 1298.125 728.563 Q 1300.025 727.887 1302.157 727.189 "></path>
    <path id="STROKE_def06a32-af45-4a07-a192-866611b3272a" opacity="1.000" fill="none" stroke="#000000" stroke-width="3.011" stroke-opacity="1.000" stroke-linecap="round" stroke-linejoin="round" d="M 1321.677 731.681 Q 1321.677 731.722 1321.595 732.579 Q 1320.711 732.801 1325.734 733.328 Q 1330.756 733.855 1335.216 732.167 Q 1339.676 730.478 1342.030 728.562 Q 1344.384 726.646 1345.720 724.792 Q 1347.056 722.938 1347.021 721.379 Q 1346.987 719.820 1346.364 719.376 Q 1345.740 718.933 1345.384 718.672 Q 1345.027 718.411 1345.156 718.538 Q 1345.284 718.664 1345.293 718.620 Q 1345.301 718.576 1343.771 717.728 Q 1342.241 716.881 1339.369 716.494 Q 1336.497 716.107 1334.223 717.291 Q 1331.949 718.474 1329.636 720.501 Q 1327.323 722.527 1324.975 725.823 Q 1322.627 729.119 1321.191 732.097 Q 1319.754 735.075 1319.344 737.753 Q 1318.933 740.431 1319.731 742.150 Q 1320.529 743.869 1321.299 744.560 Q 1322.068 745.250 1322.649 745.596 Q 1323.230 745.942 1323.091 745.849 Q 1322.953 745.757 1325.180 747.023 Q 1327.407 748.290 1331.940 748.660 Q 1336.473 749.030 1340.491 747.978 Q 1344.510 746.926 1346.838 745.736 Q 1349.166 744.546 1352.303 742.870 "></path>
    <path id="STROKE_732795bb-f302-4d45-96ba-0bd30acc194a" opacity="1.000" fill="none" stroke="#000000" stroke-width="3.011" stroke-opacity="1.000" stroke-linecap="round" stroke-linejoin="round" d="M 1364.554 745.891 Q 1364.513 745.891 1363.819 745.891 Q 1364.504 745.443 1369.666 742.243 Q 1374.827 739.043 1377.331 737.424 Q 1379.834 735.806 1382.195 731.844 Q 1380.392 731.983 1379.178 735.631 Q 1377.965 739.279 1376.820 745.225 Q 1375.674 751.171 1375.036 754.167 Q 1374.398 757.162 1374.146 758.548 Q 1373.894 759.934 1373.661 761.409 Q 1373.579 761.409 1373.130 761.409 "></path>
    <path id="STROKE_841892ed-3e86-4437-9925-8d6ae2b826a3" opacity="1.000" fill="none" stroke="#000000" stroke-width="3.011" stroke-opacity="1.000" stroke-linecap="round" stroke-linejoin="round" d="M 1363.002 764.022 Q 1362.962 764.022 1362.349 764.104 Q 1362.356 763.968 1363.324 763.652 Q 1364.292 763.337 1367.192 763.485 Q 1370.092 763.633 1373.599 763.174 Q 1377.105 762.716 1381.869 761.490 "></path>
    <path id="STROKE_592c93eb-990b-44f3-8eb3-449e47e504e8" opacity="1.000" fill="none" stroke="#000000" stroke-width="3.011" stroke-opacity="1.000" stroke-linecap="round" stroke-linejoin="round" d="M 1404.083 732.416 Q 1404.043 732.416 1403.675 732.497 Q 1406.154 732.445 1410.343 732.499 Q 1414.532 732.554 1416.761 732.628 Q 1418.991 732.702 1420.215 732.887 Q 1421.439 733.072 1421.331 733.085 Q 1421.223 733.098 1421.725 733.314 "></path>
    <path id="STROKE_38130c75-915e-429c-aaf8-099f9d20558f" opacity="1.000" fill="none" stroke="#000000" stroke-width="3.011" stroke-opacity="1.000" stroke-linecap="round" stroke-linejoin="round" d="M 1396.733 749.567 Q 1398.768 751.120 1404.924 751.100 Q 1411.080 751.081 1414.479 750.836 Q 1417.877 750.591 1419.798 750.051 Q 1421.718 749.510 1423.195 748.831 "></path>
    <path id="STROKE_936fff62-440a-4eb5-bd90-6fd8ba118551" opacity="1.000" fill="none" stroke="#000000" stroke-width="3.011" stroke-opacity="1.000" stroke-linecap="round" stroke-linejoin="round" d="M 1419.274 723.514 Q 1419.234 723.514 1418.948 723.350 Q 1418.103 722.702 1421.686 723.358 Q 1425.268 724.015 1427.577 725.200 Q 1429.886 726.384 1430.616 727.235 Q 1431.345 728.085 1432.043 728.976 Q 1432.741 729.867 1432.936 731.418 Q 1433.130 732.969 1433.223 733.789 Q 1433.316 734.609 1432.990 736.334 Q 1432.664 738.058 1431.883 739.600 Q 1431.102 741.142 1430.467 742.635 Q 1429.832 744.129 1428.338 745.851 Q 1426.845 747.573 1425.820 748.872 Q 1424.796 750.172 1423.840 751.208 Q 1422.885 752.243 1416.906 756.672 Q 1416.711 756.688 1417.233 755.202 "></path>
    <path id="STROKE_673dd8d8-f9b1-4e91-9faa-a8757cf8b9ea" opacity="1.000" fill="none" stroke="#000000" stroke-width="3.011" stroke-opacity="1.000" stroke-linecap="round" stroke-linejoin="round" d="M 1453.903 724.330 Q 1453.903 724.249 1453.781 724.004 Q 1453.699 724.004 1453.413 724.044 Q 1452.790 724.670 1455.040 729.289 Q 1457.289 733.908 1458.215 738.914 Q 1459.142 743.921 1459.479 747.587 Q 1459.817 751.254 1460.360 753.344 Q 1460.903 755.435 1461.618 755.930 Q 1462.333 756.426 1462.821 756.630 Q 1463.309 756.834 1463.589 756.808 Q 1463.869 756.783 1464.143 756.975 Q 1464.416 757.167 1465.968 755.674 Q 1467.520 754.181 1468.340 752.476 Q 1469.161 750.771 1470.192 748.917 Q 1471.224 747.063 1472.333 743.295 Q 1473.442 739.527 1482.407 723.677 Q 1483.665 723.784 1483.224 723.840 Q 1483.305 724.044 1483.387 724.167 "></path>
    <path id="STROKE_7ed503bb-7c84-4e0f-bc29-d109d0907b38" opacity="1.000" fill="none" stroke="#000000" stroke-width="3.011" stroke-opacity="1.000" stroke-linecap="round" stroke-linejoin="round" d="M 1485.881 748.334 Q 1485.829 748.408 1485.810 748.256 Q 1485.791 748.105 1485.218 749.550 Q 1486.069 749.735 1485.925 749.660 Q 1486.963 749.466 1486.876 749.483 Q 1487.705 749.477 1490.172 747.990 Q 1492.638 746.503 1493.771 745.248 Q 1494.903 743.992 1495.478 743.210 Q 1496.052 742.428 1496.060 742.426 Q 1496.068 742.424 1496.217 742.127 Q 1496.367 741.830 1496.491 741.128 Q 1495.391 741.727 1495.717 741.703 Q 1495.217 742.414 1494.501 746.898 Q 1493.785 751.382 1493.555 753.375 Q 1493.325 755.368 1493.212 756.450 Q 1493.100 757.531 1492.992 758.052 Q 1492.883 758.573 1492.896 758.776 Q 1492.908 758.980 1492.335 759.386 Q 1492.269 759.342 1492.026 758.944 "></path>
    <path id="STROKE_826b621e-90c3-4c1e-8d51-9496d114814a" opacity="1.000" fill="none" stroke="#000000" stroke-width="3.011" stroke-opacity="1.000" stroke-linecap="round" stroke-linejoin="round" d="M 1485.881 759.120 Q 1485.859 759.120 1485.837 759.120 Q 1484.860 759.183 1487.564 759.141 Q 1490.268 759.099 1491.725 758.913 Q 1493.183 758.726 1494.216 758.736 Q 1495.250 758.747 1495.793 758.810 Q 1496.337 758.873 1497.021 759.032 "></path>
    <path id="STROKE_9746bced-3e28-4b60-a6de-cf1471359495" opacity="1.000" fill="none" stroke="#000000" stroke-width="3.011" stroke-opacity="1.000" stroke-linecap="round" stroke-linejoin="round" d="M 1701.571 788.872 Q 1701.336 787.671 1701.328 787.833 Q 1700.588 786.740 1702.307 781.544 Q 1704.025 776.349 1705.960 771.476 Q 1707.895 766.604 1708.732 764.244 Q 1709.568 761.885 1710.292 760.028 Q 1711.016 758.171 1711.877 756.105 Q 1712.738 754.040 1714.409 750.418 Q 1716.080 746.796 1718.543 741.585 Q 1721.005 736.373 1723.172 732.219 Q 1725.339 728.064 1728.419 723.471 Q 1731.499 718.878 1734.089 715.942 Q 1736.679 713.006 1737.783 711.870 Q 1738.887 710.735 1740.700 709.533 Q 1742.513 708.332 1744.342 707.872 Q 1746.172 707.412 1748.221 707.259 Q 1750.270 707.106 1753.519 708.841 Q 1756.769 710.577 1759.106 711.672 Q 1761.443 712.767 1763.115 713.426 Q 1764.786 714.085 1765.666 715.862 Q 1766.545 717.639 1766.643 719.825 Q 1766.741 722.010 1766.116 724.500 Q 1765.491 726.990 1763.183 730.175 Q 1760.875 733.360 1759.560 734.778 Q 1758.245 736.196 1756.815 737.316 Q 1755.385 738.435 1753.149 739.968 Q 1750.913 741.500 1746.496 743.676 Q 1742.080 745.851 1739.178 746.983 Q 1736.277 748.114 1734.154 748.468 Q 1732.030 748.823 1731.061 748.932 Q 1730.092 749.042 1729.479 748.224 Q 1728.866 747.406 1728.341 747.067 Q 1727.817 746.729 1727.486 746.728 Q 1727.154 746.727 1727.100 746.693 Q 1727.045 746.660 1726.695 746.832 Q 1726.345 747.004 1726.107 747.361 "></path>
    <path id="STROKE_5da7f32b-6cc1-43e4-9d92-ae25a916496f" opacity="1.000" fill="none" stroke="#000000" stroke-width="3.011" stroke-opacity="1.000" stroke-linecap="round" stroke-linejoin="round" d="M 1784.196 710.006 Q 1784.174 710.006 1783.864 709.918 Q 1783.789 710.033 1783.658 710.705 Q 1783.527 711.377 1783.565 711.327 Q 1783.603 711.277 1783.428 711.290 Q 1783.253 711.303 1783.350 718.140 Q 1783.447 724.977 1783.528 729.425 Q 1783.609 733.874 1782.189 741.174 Q 1780.770 748.473 1780.084 755.120 Q 1780.725 753.912 1781.234 751.782 "></path>
    <path id="STROKE_02a8730c-a1b1-449d-acd7-bb18160c007a" opacity="1.000" fill="none" stroke="#000000" stroke-width="3.011" stroke-opacity="1.000" stroke-linecap="round" stroke-linejoin="round" d="M 1784.151 730.651 Q 1784.566 730.779 1788.112 731.721 Q 1791.658 732.663 1795.470 732.240 Q 1799.282 731.818 1801.443 731.307 Q 1803.604 730.796 1805.946 729.767 "></path>
    <path id="STROKE_eca354bd-0491-4478-ae71-855dded7d687" opacity="1.000" fill="none" stroke="#000000" stroke-width="3.011" stroke-opacity="1.000" stroke-linecap="round" stroke-linejoin="round" d="M 1822.833 735.514 Q 1822.424 736.276 1822.568 736.199 Q 1822.296 736.071 1822.678 736.424 Q 1823.060 736.778 1824.651 737.154 Q 1826.241 737.529 1829.496 736.691 Q 1832.750 735.852 1834.682 734.966 Q 1836.613 734.080 1838.559 733.180 Q 1840.504 732.281 1842.044 731.096 Q 1843.585 729.912 1844.468 728.698 Q 1845.351 727.485 1845.382 726.252 Q 1845.414 725.019 1845.396 724.237 Q 1845.378 723.456 1844.274 721.849 Q 1843.170 720.242 1842.218 719.382 Q 1841.265 718.521 1840.510 718.198 Q 1839.754 717.874 1839.477 717.801 Q 1839.200 717.727 1838.559 717.705 Q 1837.918 717.683 1837.395 717.719 Q 1836.872 717.754 1836.362 717.860 Q 1835.852 717.967 1834.405 718.933 Q 1832.958 719.899 1831.880 720.816 Q 1830.802 721.734 1828.954 723.852 Q 1827.105 725.971 1825.640 728.959 Q 1824.174 731.947 1823.428 733.674 Q 1822.682 735.400 1822.472 737.949 Q 1822.261 740.499 1822.220 741.926 Q 1822.180 743.353 1822.707 745.536 Q 1823.234 747.719 1824.634 749.028 Q 1826.033 750.338 1828.159 751.019 Q 1830.285 751.700 1833.387 751.063 Q 1836.489 750.426 1839.404 749.014 Q 1842.319 747.602 1845.910 746.035 "></path>
    <path id="STROKE_7a2466c4-93d7-4570-8485-4275847d1f38" opacity="1.000" fill="none" stroke="#000000" stroke-width="3.011" stroke-opacity="1.000" stroke-linecap="round" stroke-linejoin="round" d="M 1858.995 746.433 Q 1859.282 744.777 1859.371 745.284 Q 1859.156 745.530 1859.611 745.130 Q 1860.067 744.730 1862.409 743.872 Q 1864.752 743.015 1866.344 742.714 Q 1867.937 742.413 1868.856 742.374 Q 1869.776 742.336 1870.008 743.348 Q 1870.241 744.359 1870.145 744.720 Q 1870.050 745.081 1869.450 746.355 Q 1868.850 747.628 1866.258 751.066 Q 1863.667 754.503 1859.172 760.204 Q 1859.057 760.761 1860.841 759.485 Q 1862.625 758.208 1864.987 757.655 Q 1867.348 757.103 1869.034 757.034 Q 1870.720 756.966 1873.094 757.476 Q 1875.467 757.986 1876.462 758.329 Q 1877.457 758.672 1878.712 758.723 "></path>
    <path id="STROKE_219a693a-5f4b-481f-b467-da9ec8c76b70" opacity="1.000" fill="none" stroke="#000000" stroke-width="3.011" stroke-opacity="1.000" stroke-linecap="round" stroke-linejoin="round" d="M 1904.441 725.656 Q 1903.171 725.656 1903.247 725.656 Q 1902.367 725.318 1902.673 725.346 Q 1904.192 724.295 1903.778 724.727 Q 1904.544 724.781 1910.686 725.054 Q 1916.827 725.327 1921.586 726.013 Q 1926.344 726.699 1928.445 727.238 Q 1930.546 727.776 1931.821 728.213 Q 1933.096 728.649 1933.475 729.354 Q 1933.853 730.058 1933.852 730.504 Q 1933.850 730.951 1933.662 731.358 "></path>
    <path id="STROKE_f0bfda76-6a8b-487b-a16a-d3e6c4fde76d" opacity="1.000" fill="none" stroke="#000000" stroke-width="3.011" stroke-opacity="1.000" stroke-linecap="round" stroke-linejoin="round" d="M 1892.947 748.776 Q 1894.541 750.315 1901.625 749.910 Q 1908.709 749.505 1913.000 749.522 Q 1917.291 749.540 1919.022 749.484 Q 1920.753 749.428 1921.970 749.798 Q 1923.187 750.168 1925.086 750.544 "></path>
    <path id="STROKE_b2603938-8550-4a11-9f9e-74664293e363" opacity="1.000" fill="none" stroke="#000000" stroke-width="3.011" stroke-opacity="1.000" stroke-linecap="round" stroke-linejoin="round" d="M 1929.595 720.484 Q 1929.529 720.439 1929.153 720.395 Q 1929.572 720.353 1930.162 720.808 Q 1930.753 721.264 1931.376 721.644 Q 1932.000 722.024 1932.820 722.360 Q 1933.641 722.697 1934.392 723.147 Q 1935.144 723.597 1937.376 724.724 Q 1939.608 725.851 1941.267 726.855 Q 1942.926 727.859 1943.927 728.743 Q 1944.929 729.627 1945.370 731.304 Q 1945.811 732.982 1945.645 733.985 Q 1945.478 734.988 1945.460 735.658 Q 1945.443 736.328 1942.624 740.022 Q 1939.805 743.716 1934.776 748.424 Q 1929.747 753.132 1925.174 757.308 Q 1925.219 757.264 1925.793 756.601 "></path>
    <path id="STROKE_a11eebd8-5cb5-4e4d-8362-6ea3cfdf8944" opacity="1.000" fill="none" stroke="#000000" stroke-width="3.011" stroke-opacity="1.000" stroke-linecap="round" stroke-linejoin="round" d="M 1965.669 720.881 Q 1965.647 720.837 1965.404 720.616 Q 1965.788 720.965 1966.176 729.752 Q 1966.563 738.539 1966.614 743.759 Q 1966.664 748.979 1966.814 751.435 Q 1966.965 753.891 1967.164 754.868 Q 1967.363 755.845 1968.368 756.672 Q 1969.372 757.500 1971.475 756.274 Q 1973.578 755.048 1976.829 750.735 Q 1980.081 746.423 1981.997 743.718 Q 1983.914 741.014 1985.218 737.361 Q 1986.522 733.708 1986.884 731.069 Q 1987.246 728.429 1987.198 726.717 Q 1987.198 726.739 1987.286 726.938 "></path>
    <path id="STROKE_2881c49c-8380-44be-baf7-9121d77c9548" opacity="1.000" fill="none" stroke="#000000" stroke-width="3.011" stroke-opacity="1.000" stroke-linecap="round" stroke-linejoin="round" d="M 1988.834 747.185 Q 1988.827 747.147 1987.949 746.919 Q 1989.351 746.919 1988.988 746.919 Q 1989.578 747.036 1992.118 747.053 Q 1994.657 747.071 1996.242 747.081 Q 1997.826 747.092 1998.636 747.531 Q 1999.447 747.971 1999.587 748.222 Q 1999.728 748.473 1999.641 748.309 Q 1999.554 748.146 2000.088 749.268 Q 2000.623 750.389 1997.883 753.905 Q 1995.143 757.420 1992.941 759.394 Q 1990.738 761.368 1988.922 764.293 Q 1989.308 764.861 1990.759 764.007 Q 1992.210 763.153 1994.745 762.221 Q 1997.280 761.288 1999.056 760.975 Q 2000.832 760.661 2002.715 760.668 "></path>
  </g>
</svg>